<svg width="1568" height="672" viewBox="0 0 1568 672" fill="none" xmlns="http://www.w3.org/2000/svg">
<path d="M93.2 460.3L93.5 423.5L97.8 423.2L102 422.9V459.9V497H97.5H93L93.2 460.3Z" fill="#8B5CF6"/>
<path d="M271 459.5V422H275.5H280V459.5V497H275.5H271V459.5Z" fill="#8B5CF6"/>
<path d="M118.4 493.6C118.1 492.8 118 490.7 118.2 488.8L118.5 485.5H163H207.5V490V494.5L163.2 494.8C125.8 495 118.9 494.8 118.4 493.6Z" fill="#8B5CF6"/>
<path d="M296 490.5V486H340.5H385V490.5V495H340.5H296V490.5Z" fill="#8B5CF6"/>
<path d="M474.4 493.6C474.1 492.8 474 490.7 474.2 488.8L474.5 485.5H541H607.5V490V494.5L541.2 494.8C484.9 495 474.9 494.8 474.4 493.6Z" fill="#8B5CF6"/>
<path d="M651 490V485L673.8 485.2L696.5 485.5V490V494.5L673.8 494.8L651 495V490Z" fill="#8B5CF6"/>
<path d="M739.7 494.3C739.5 493.8 739.4 491.7 739.4 489.5L739.5 485.5L806.8 485.2L874 485V490V495H807.1C770.2 495 739.9 494.7 739.7 494.3Z" fill="#8B5CF6"/>
<path d="M918 490V485H940.5H963V490V495H940.5H918V490Z" fill="#8B5CF6"/>
<path d="M1184 490V485L1206.3 485.2L1228.5 485.5V490V494.5L1206.3 494.8L1184 495V490Z" fill="#8B5CF6"/>
<path d="M1361 490V485H1383.4C1395.8 485 1406.1 485.3 1406.3 485.8C1406.5 486.2 1406.5 488.4 1406.2 490.8L1405.8 495H1383.4H1361V490Z" fill="#8B5CF6"/>
<path d="M213.6 486.3C211.3 485.9 210.9 485.5 211.3 483.7C211.6 482.5 216.6 471.4 222.5 459C228.4 446.6 234.5 433.6 236.1 430.1L239 423.7L243.2 424.4C245.5 424.8 247.6 425.3 247.9 425.5C248.1 425.8 241.8 439.7 233.9 456.5C223.9 477.8 219.1 487 218 486.9C217.2 486.8 215.2 486.5 213.6 486.3Z" fill="#8B5CF6"/>
<path d="M391.5 486.3C390.4 486 389.1 485.5 388.7 485.1C388.3 484.6 390.7 478.5 394.2 471.4C397.7 464.3 404.1 450.7 408.5 441.1L416.5 423.9L420.5 424.5C422.6 424.8 424.6 425.3 424.9 425.6C425.6 426.3 424.8 428.1 410.3 459C396.8 487.5 396.7 487.6 391.5 486.3Z" fill="#8B5CF6"/>
<path d="M458.1 483.3C457.1 481.2 454.2 474.9 451.6 469.3C449.1 463.7 443.9 452.3 440 444C436.1 435.6 433 428.1 433.2 427.2C433.5 425.5 440 423.6 441.2 424.8C441.5 425.2 447.9 439 455.4 455.5C470 487.8 469.8 486.7 462.8 486.9C460.6 487 459.7 486.2 458.1 483.3Z" fill="#8B5CF6"/>
<path d="M614 486.3C612.6 486 611.1 485.4 610.6 485C610 484.4 612.8 477.5 617.4 467.8C621.6 458.8 627.9 445.4 631.4 438L637.7 424.5L642 424.8C644.4 425 646.6 425.3 646.8 425.5C647.6 426.3 618.6 487 617.5 486.9C617 486.8 615.4 486.5 614 486.3Z" fill="#8B5CF6"/>
<path d="M881.5 486.3C880.4 486.1 878.9 485.7 878.3 485.5C876.8 485 879.3 479 894.4 447L905.1 424.5L909.2 424.8C911.5 425 913.6 425.3 913.9 425.5C914.7 426.4 886.2 486.5 884.9 486.6C884.1 486.7 882.6 486.6 881.5 486.3Z" fill="#8B5CF6"/>
<path d="M968.8 486.3C967.2 486.1 966 485.5 966 485C966 483.9 993 425.8 994.1 424.6C995 423.6 1003 424.8 1003 426C1003 426.5 996.6 440.4 988.9 456.9C978.5 479 974.3 487 973.1 486.9C972.2 486.8 970.3 486.5 968.8 486.3Z" fill="#8B5CF6"/>
<path d="M1146.8 486.3C1145.2 486.1 1144 485.3 1144 484.6C1144 483.8 1149.2 472.1 1155.6 458.4C1162 444.7 1168.1 431.3 1169.3 428.7L1171.3 423.8L1175.3 424.4C1177.5 424.8 1179.7 425.3 1180.1 425.6C1180.5 425.8 1178 432.2 1174.4 439.8C1170.8 447.3 1164.7 460.5 1160.8 469C1153 485.8 1152.3 487.1 1150.6 486.9C1150 486.8 1148.3 486.5 1146.8 486.3Z" fill="#8B5CF6"/>
<path d="M1235.5 486.1C1233.9 485.7 1232.6 484.9 1232.7 484.2C1233.1 482.7 1259.7 425 1260.4 424.3C1261.3 423.3 1269 425.2 1269 426.4C1269 429.1 1241.3 486.5 1239.9 486.6C1239.1 486.7 1237.2 486.5 1235.5 486.1Z" fill="#8B5CF6"/>
<path d="M1323.3 486.3C1322 486.1 1321 485.5 1321 485C1321 484.6 1327.2 470.8 1334.8 454.4L1348.6 424.5L1353 424.8C1355.4 425 1357.6 425.3 1357.8 425.5C1358 425.7 1355.1 432.6 1351.3 440.7C1347.4 448.8 1341 462.6 1337 471.3C1329.3 487.9 1329.7 487.5 1323.3 486.3Z" fill="#8B5CF6"/>
<path d="M1414 486.3C1410 485.6 1409.6 484.4 1411.6 480.3C1412.6 478.2 1418.9 464.8 1425.6 450.5L1437.8 424.5L1442.1 424.8C1444.5 425 1446.6 425.3 1446.8 425.5C1447.6 426.3 1418.6 487 1417.5 486.9C1417 486.8 1415.4 486.5 1414 486.3Z" fill="#8B5CF6"/>
<path d="M709.7 480.3C709.3 480 709 476.1 709 471.8V463.9L716.3 464.2L723.5 464.5L723.8 472.1L724.1 479.7L718.8 480.3C712 481.2 710.5 481.2 709.7 480.3Z" fill="#8B5CF6"/>
<path d="M93 373.5V336H97.5H102V373.5V411H97.5H93V373.5Z" fill="#8B5CF6"/>
<path d="M182 373.5V336H186.5H191V373.5V411H186.5H182V373.5Z" fill="#8B5CF6"/>
<path d="M315 373.5V336H320.1C324.4 336 325.1 336.3 324.6 337.6C324.3 338.5 324 355.3 324 375.1V411H319.5H315V373.5Z" fill="#8B5CF6"/>
<path d="M562.9 406.5C562.3 403.4 562.9 399.7 564.1 398.9C564.9 398.4 584.5 398 608.3 398H651V402.5V407H607C582.8 407 563 406.8 562.9 406.5Z" fill="#8B5CF6"/>
<path d="M785 402.5V398H807.5H830V402.5V407H807.5H785V402.5Z" fill="#8B5CF6"/>
<path d="M1006 402.5V398L1051.3 398.2L1096.5 398.5L1096.8 402.8L1097.1 407H1051.6H1006V402.5Z" fill="#8B5CF6"/>
<path d="M213.8 400.3C212.2 400.1 211 399.2 211 398.5C211 397.7 217.2 383.7 224.8 367.4L238.5 337.8L242.8 338.3C245.2 338.6 247.3 339 247.5 339.2C247.9 339.6 227.5 384.3 221.6 395.8C220.2 398.6 218.4 400.9 217.7 400.9C217.1 400.8 215.3 400.5 213.8 400.3Z" fill="#8B5CF6"/>
<path d="M347 400.1C344.7 399.6 343.6 399 343.8 398C344.1 396.6 349 385.9 364.3 353.3C371.2 338.5 371.5 338 374.5 338C381 338 381 338.6 373.1 355.7C357.4 389.9 352.4 400.4 351.5 400.5C350.9 400.6 348.9 400.4 347 400.1Z" fill="#8B5CF6"/>
<path d="M435.5 400.3C434.4 400 433.1 399.5 432.7 399C432.2 398.6 436.9 387.5 443.1 374.4C449.2 361.2 455.6 347.7 457.1 344.3C459.7 338.4 460.1 338 463.2 338C469.8 338 469.9 338.8 464.1 351.2C438.4 406.2 441 401.6 435.5 400.3Z" fill="#8B5CF6"/>
<path d="M658.3 399.9C656.5 399.4 655 398.3 655 397.6C655 396.8 659.4 386.8 664.8 375.4C670.2 363.9 676.4 350.8 678.5 346.3C682.1 338.5 682.5 338 685.4 338C690.9 338 691.7 339.2 689.4 344.2C680.4 364.5 663.2 400.4 662.5 400.6C661.9 400.7 660 400.4 658.3 399.9Z" fill="#8B5CF6"/>
<path d="M746.5 400.1C744.6 399.6 743.6 398.8 743.8 397.9C744.1 396.5 749.6 384.4 763.8 354.3L771.4 338H775.2C777.5 338 779.3 338.5 779.6 339.4C779.9 340.1 775.4 350.8 769.7 363.1C754 396.6 751.8 401 750.6 400.9C750 400.8 748.2 400.5 746.5 400.1Z" fill="#8B5CF6"/>
<path d="M839.5 400.5C839 400.3 837.3 399.9 835.8 399.6C834.2 399.2 833 398.3 833 397.6C833 396.8 838 385.4 844.1 372.3C850.2 359.2 856.3 346.1 857.6 343.3C859.7 338.4 860.2 338 863.2 338C865 338 867.1 338.4 867.9 338.9C869.3 339.8 869.1 340.4 844.3 393.8C842.5 397.7 840.8 401 840.7 400.9C840.6 400.9 840.1 400.7 839.5 400.5Z" fill="#8B5CF6"/>
<path d="M924.2 399.9C922.1 399.3 921 398.4 921.3 397.6C921.6 396.9 927.8 383.2 935.2 367.1L948.5 338H952C953.9 338 956.1 338.4 956.8 338.9C957.8 339.5 954.6 347.1 943.9 370.3C936.1 387.2 929.2 401 928.6 400.9C928 400.9 926 400.4 924.2 399.9Z" fill="#8B5CF6"/>
<path d="M1191 400.1C1189.6 399.7 1188.4 398.8 1188.3 398C1188.1 397.2 1194.1 383.5 1201.4 367.5L1214.8 338.5L1218.9 338.2C1221.8 338 1223.2 338.3 1223.6 339.4C1223.9 340.2 1221.6 346.4 1218.4 353.2C1199.3 394.2 1196.1 400.5 1194.9 400.7C1194.1 400.7 1192.4 400.5 1191 400.1Z" fill="#8B5CF6"/>
<path d="M1280 400.3C1278.6 400 1277.1 399.5 1276.6 399C1276.2 398.5 1281.5 385.9 1288.5 370.8C1295.5 355.8 1301.7 342.3 1302.2 340.8C1303 338.4 1303.8 338 1306.8 338C1314.1 338 1314.2 337.4 1298.8 370.4C1291 387.2 1284.1 400.9 1283.5 400.9C1283 400.8 1281.4 400.5 1280 400.3Z" fill="#8B5CF6"/>
<path d="M1368.3 399.9C1366.5 399.4 1365 398.7 1365 398.4C1365 398.1 1371.1 384.8 1378.5 368.8C1385.9 352.8 1392 339.3 1392 338.9C1392 337.7 1400.7 337.8 1401.5 338.9C1402.2 340.2 1373.8 401 1372.5 400.9C1372 400.9 1370 400.4 1368.3 399.9Z" fill="#8B5CF6"/>
<path d="M1458.7 400.3C1457.1 400 1455.6 399.2 1455.4 398.5C1455.1 397.7 1459.3 387.5 1464.8 375.8C1470.3 364.1 1476.4 350.8 1478.5 346.3C1482.1 338.5 1482.5 338 1485.4 338C1492.1 338 1492 338.4 1482.5 359.2C1467.3 392.4 1463.1 401 1462.3 400.9C1461.9 400.8 1460.2 400.5 1458.7 400.3Z" fill="#8B5CF6"/>
<path d="M1100.8 399.3C1099.8 399.1 1099 398.3 1099 397.6C1099 397 1102.9 388.1 1107.6 378C1112.4 367.8 1118.4 354.8 1121.1 349L1126 338.5L1130 338.2C1132.8 338 1134.2 338.3 1134.6 339.3C1134.9 340.1 1130.7 350.4 1125.2 362.1C1119.7 373.9 1113.6 387.2 1111.5 391.8C1107.5 400.4 1106.8 400.9 1100.8 399.3Z" fill="#8B5CF6"/>
<path d="M93.7 324.4C93.3 324 93 306.6 93 285.8V248H97.5H102L101.8 286.3L101.5 324.5L98 324.8C96 325 94.1 324.8 93.7 324.4Z" fill="#8B5CF6"/>
<path d="M185.8 324.2L182 323.9V285.9V248H186.5H191V285.9C191 306.8 190.7 324 190.3 324.2C189.8 324.4 187.8 324.4 185.8 324.2Z" fill="#8B5CF6"/>
<path d="M315 286V248H319.5H324V286V324H319.5H315V286Z" fill="#8B5CF6"/>
<path d="M563.2 316.3L563.5 311.5L585.8 311.2L608.1 311L607.8 315.7L607.5 320.5L585.2 320.8L562.9 321L563.2 316.3Z" fill="#8B5CF6"/>
<path d="M785 316.6C785 312.9 785.4 312.1 787.3 311.6C788.5 311.3 808.5 311 831.8 311H874V316V321H829.5H785V316.6Z" fill="#8B5CF6"/>
<path d="M1094 316V311H1117H1140V316V321H1117H1094V316Z" fill="#8B5CF6"/>
<path d="M1317.4 319.6C1317.1 318.8 1317 316.7 1317.2 314.8L1317.5 311.5L1361.8 311.2L1406 311V316V321H1362C1325.1 321 1317.8 320.8 1317.4 319.6Z" fill="#8B5CF6"/>
<path d="M481.2 314C479.4 313.6 477.6 313 477.3 312.6C476.7 312 483.6 296.2 496.9 268L504.7 251.5L508.9 251.7C511.3 251.8 513.4 252.1 513.6 252.3C514.1 252.8 486.3 313.1 485.2 314.1C484.8 314.4 483 314.4 481.2 314Z" fill="#8B5CF6"/>
<path d="M1236.2 314C1234.4 313.6 1232.6 313 1232.3 312.6C1232 312.3 1233.3 308.5 1235.3 304.3C1260.9 248.8 1259.5 251.5 1263.1 251.2C1270.1 250.7 1270.1 251.4 1261.1 270.7C1256.5 280.5 1250 294.5 1246.7 301.8C1243.3 309 1240.3 315 1240 314.9C1239.7 314.8 1238 314.4 1236.2 314Z" fill="#8B5CF6"/>
<path d="M255.8 313.3C254.8 313.1 254 312.7 254 312.5C254 312.3 259.1 301.1 265.3 287.8C271.6 274.4 278 260.6 279.5 257.2L282.4 250.8L286.4 251.5C288.7 251.8 290.8 252.4 291.1 252.8C291.4 253.2 285.4 267.1 277.6 283.7C263.6 313.7 263.5 313.9 260.5 313.9C258.9 313.8 256.7 313.6 255.8 313.3Z" fill="#8B5CF6"/>
<path d="M389.8 313.3C388.8 313.1 388 312.6 388 312.2C388 311.9 393.2 300.4 399.6 286.7C406 273 412.3 259.4 413.6 256.4C415.8 251.4 416.2 251 419.2 251C421 251 423.1 251.4 423.9 251.9C425.6 253 425.8 252.7 409.2 288C397.8 312.2 397 313.5 394.3 313.7C392.8 313.7 390.7 313.6 389.8 313.3Z" fill="#8B5CF6"/>
<path d="M681.7 312.3C681.4 311.3 675.4 298.1 668.3 283C661.2 267.9 655 254.7 654.7 253.7C654.1 252.1 654.6 251.9 659 252.2L664 252.5L673.1 272C686.1 299.9 691 311.1 691 312.6C691 314.8 682.4 314.5 681.7 312.3Z" fill="#8B5CF6"/>
<path d="M700.3 313.4C699.6 313.1 699 312.2 699 311.5C699 310.8 702.4 302.8 706.6 293.8C710.7 284.8 716.9 271.5 720.3 264.3C725.2 253.5 726.8 251 728.4 251C731.9 251 735 252.2 735 253.4C735 254 728.8 267.8 721.1 284C707.9 312.3 707.2 313.5 704.4 313.7C702.8 313.8 700.9 313.7 700.3 313.4Z" fill="#8B5CF6"/>
<path d="M946.5 308.8C945.3 305.9 939 292.3 932.6 278.7C926.2 265 921 253.4 921 253C921 251.8 929 250.6 930 251.6C930.5 252.1 934.2 259.9 938.3 269C942.4 278.1 948.5 291.5 951.9 298.8C955.3 306.2 957.8 312.6 957.5 313.1C957.1 313.6 955.1 314 952.9 314C949 314 948.8 313.8 946.5 308.8Z" fill="#8B5CF6"/>
<path d="M967.1 313.1C965.4 312 964.5 314.1 980.3 279.7L993.5 250.9L997.8 251.3C1000.2 251.6 1002.3 252 1002.6 252.3C1002.9 252.6 996.7 266.6 988.9 283.4C974.7 313.8 974.6 314 971.6 314C969.9 314 967.9 313.6 967.1 313.1Z" fill="#8B5CF6"/>
<path d="M1055.7 313.3C1054.7 313 1054.1 312.3 1054.3 311.7C1054.6 311 1061 297.1 1068.5 280.8C1080.3 255.3 1082.5 251 1084.4 251C1087.8 251 1091 252.2 1091 253.4C1091 254 1084.8 267.9 1077.3 284.2C1063.6 313.7 1063.5 314 1060.5 313.9C1058.9 313.8 1056.7 313.6 1055.7 313.3Z" fill="#8B5CF6"/>
<path d="M1476.6 300.8C1459.2 264.2 1455 255 1455 253.7C1455 252 1457.1 251 1460.8 251C1463.3 251 1464 252.2 1470.7 266.8C1474.7 275.4 1480.9 288.9 1484.6 296.7C1488.2 304.6 1491 311.7 1490.6 312.5C1490.3 313.4 1488.7 314 1486.5 314H1482.9L1476.6 300.8Z" fill="#8B5CF6"/>
<path d="M590.2 274.3C587.6 273.9 587 273.5 587.5 272.2C587.8 271.3 589.3 267.4 590.7 263.7L593.4 256.9L597.9 257.2C603.3 257.6 603.4 258 599.8 268.2C597.3 275.4 597.7 275.2 590.2 274.3Z" fill="#8B5CF6"/>
<path d="M93.7 237.3C93.3 237 93 219.9 93 199.3V162H97.5H102V200V238H98.2C96.1 238 94 237.7 93.7 237.3Z" fill="#8B5CF6"/>
<path d="M185.3 237.3L182.1 236.9L181.8 201.2C181.6 181.6 181.7 164.7 181.9 163.7C182.1 162.4 183.2 162 186.6 162H191L190.8 199.7C190.6 223.8 190.1 237.4 189.5 237.5C189 237.6 187.1 237.5 185.3 237.3Z" fill="#8B5CF6"/>
<path d="M563 228.9V223.8L607 224.2L651 224.5V229.3V234H607H563V228.9Z" fill="#8B5CF6"/>
<path d="M873 229.5V225H896.1H919.1L918.8 229.3L918.5 233.5L895.8 233.8L873 234V229.5Z" fill="#8B5CF6"/>
<path d="M1094.4 232.6C1094.1 231.8 1094 229.7 1094.2 227.8L1094.5 224.5H1184H1273.5V229V233.5L1184.2 233.8C1108.1 234 1094.9 233.8 1094.4 232.6Z" fill="#8B5CF6"/>
<path d="M1317.4 232.6C1317.1 231.8 1317 229.7 1317.2 227.8L1317.5 224.5L1384.3 224.2L1451 224V229V234H1384.5C1328.3 234 1317.9 233.8 1317.4 232.6Z" fill="#8B5CF6"/>
<path d="M435.7 227.3C434.1 227 432.7 226.3 432.4 225.6C432.1 224.9 438.2 210.9 445.9 194.4L459.9 164.5L464 164.7C466.4 164.8 468.5 165.1 468.8 165.4C469.1 165.7 463.8 177.8 457 192.2C450.2 206.7 443.8 220.6 442.7 223.3C441.6 225.9 440.2 227.9 439.6 227.9C439 227.8 437.2 227.5 435.7 227.3Z" fill="#8B5CF6"/>
<path d="M524.2 227.3C522.9 227 521.7 226.3 521.4 225.6C521.1 224.9 527.2 210.9 534.8 194.4L548.7 164.5L552.8 164.6C555.1 164.6 557.3 164.9 557.6 165.2C557.9 165.6 551.7 179.8 543.8 196.9C534 218.3 529 227.9 528 227.8C527.2 227.8 525.5 227.5 524.2 227.3Z" fill="#8B5CF6"/>
<path d="M746.5 227.3C742.2 226.3 741.2 228.9 767.2 172.8C771.1 164.5 771.5 164 774.4 164C776.1 164 778.1 164.4 778.9 164.9C780.7 166 780.6 166.3 763.4 202.8C755.2 220.3 751.1 228 750 227.9C749.2 227.8 747.6 227.6 746.5 227.3Z" fill="#8B5CF6"/>
<path d="M835.5 227.1C833.3 226.6 832.6 225.9 832.7 224.4C832.8 223.3 839 209.3 846.4 193.4L859.9 164.5L864.1 164.7C866.4 164.8 868.5 165.1 868.8 165.4C869.6 166.2 840.7 228 839.5 227.9C839 227.8 837.2 227.5 835.5 227.1Z" fill="#8B5CF6"/>
<path d="M1013.5 227.1C1011.1 226.6 1010.5 225.9 1010.7 224C1010.8 222.6 1016.8 208.5 1024.2 192.7L1037.5 163.8L1041.9 164.4C1044.4 164.7 1046.5 165.2 1046.7 165.3C1046.8 165.5 1042 176.4 1035.9 189.6C1029.8 202.7 1023.3 216.8 1021.5 220.8C1019.6 224.7 1017.8 227.9 1017.3 227.9C1016.9 227.8 1015.2 227.5 1013.5 227.1Z" fill="#8B5CF6"/>
<path d="M1278.3 226.3C1277 226.1 1276 225.6 1276 225.2C1276 224.8 1282.3 211 1289.9 194.5L1303.7 164.5L1308 164.7C1310.3 164.8 1312.5 165.1 1312.7 165.4C1313 165.6 1306.9 179.5 1299.2 196.2C1284.2 228.7 1284.9 227.7 1278.3 226.3Z" fill="#8B5CF6"/>
<path d="M118.2 142.3L118.5 137.5L141.3 137.3L164 137.1V142V147H140.9H117.9L118.2 142.3Z" fill="#8B5CF6"/>
<path d="M473.7 146.3C472.7 145.3 472.9 139.2 473.9 138.6C474.4 138.3 494.5 137.9 518.6 137.8L562.5 137.7L562.8 142.3L563.1 147H518.7C494.3 147 474 146.7 473.7 146.3Z" fill="#8B5CF6"/>
<path d="M784 143C784 140.7 784.5 138.7 785.3 138.5C787.2 137.8 874 137.3 874.5 138C874.7 138.3 874.6 140.5 874.3 142.8L873.7 147H828.9H784V143Z" fill="#8B5CF6"/>
<path d="M1051 142.5V138H1185H1319V142.5V147H1185H1051V142.5Z" fill="#8B5CF6"/>
</svg>
